<svg width="34" height="34" viewBox="0 0 34 34" fill="none" xmlns="http://www.w3.org/2000/svg">
<path d="M17 33C25.8366 33 33 25.8366 33 17C33 8.16344 25.8366 1 17 1C8.16344 1 1 8.16344 1 17C1 25.8366 8.16344 33 17 33Z" stroke="#6C737F" stroke-width="2" stroke-linecap="round" stroke-linejoin="round"/>
<path d="M13 12.1445C13 11.3809 13 10.999 13.1596 10.7859C13.2987 10.6001 13.5115 10.4839 13.743 10.4674C14.0086 10.4484 14.3298 10.6549 14.9722 11.0678L22.5251 15.9233C23.0825 16.2816 23.3612 16.4608 23.4575 16.6886C23.5416 16.8877 23.5416 17.1123 23.4575 17.3114C23.3612 17.5392 23.0825 17.7184 22.5251 18.0767L14.9722 22.9322C14.3298 23.3451 14.0086 23.5516 13.743 23.5326C13.5115 23.5161 13.2987 23.3999 13.1596 23.2141C13 23.001 13 22.6191 13 21.8555V12.1445Z" stroke="#6C737F" stroke-width="2" stroke-linecap="round" stroke-linejoin="round"/>
</svg>
