<svg width="90" height="90" viewBox="0 0 90 90" fill="none" xmlns="http://www.w3.org/2000/svg">
<g filter="url(#filter0_dd_674_3067)">
<rect x="9" y="5" width="72" height="72" rx="36" />
<path d="M57 54.5C57 52.4067 57 51.36 56.7416 50.5083C56.1599 48.5907 54.6593 47.0901 52.7417 46.5084C51.89 46.25 50.8433 46.25 48.75 46.25H41.25C39.1567 46.25 38.11 46.25 37.2583 46.5084C35.3407 47.0901 33.8401 48.5907 33.2584 50.5083C33 51.36 33 52.4067 33 54.5M51.75 34.25C51.75 37.9779 48.7279 41 45 41C41.2721 41 38.25 37.9779 38.25 34.25C38.25 30.5221 41.2721 27.5 45 27.5C48.7279 27.5 51.75 30.5221 51.75 34.25Z" stroke="#475467" stroke-width="3" stroke-linecap="round" stroke-linejoin="round"/>
<rect x="7.5" y="3.5" width="75" height="75" rx="37.5" stroke="white" stroke-width="3"/>
</g>
<defs>
<filter id="filter0_dd_674_3067" x="0" y="0" width="90" height="90" filterUnits="userSpaceOnUse" color-interpolation-filters="sRGB">
<feFlood flood-opacity="0" result="BackgroundImageFix"/>
<feColorMatrix in="SourceAlpha" type="matrix" values="0 0 0 0 0 0 0 0 0 0 0 0 0 0 0 0 0 0 127 0" result="hardAlpha"/>
<feMorphology radius="2" operator="erode" in="SourceAlpha" result="effect1_dropShadow_674_3067"/>
<feOffset dy="2"/>
<feGaussianBlur stdDeviation="2"/>
<feColorMatrix type="matrix" values="0 0 0 0 0.0627451 0 0 0 0 0.0941176 0 0 0 0 0.156863 0 0 0 0.06 0"/>
<feBlend mode="normal" in2="BackgroundImageFix" result="effect1_dropShadow_674_3067"/>
<feColorMatrix in="SourceAlpha" type="matrix" values="0 0 0 0 0 0 0 0 0 0 0 0 0 0 0 0 0 0 127 0" result="hardAlpha"/>
<feMorphology radius="2" operator="erode" in="SourceAlpha" result="effect2_dropShadow_674_3067"/>
<feOffset dy="4"/>
<feGaussianBlur stdDeviation="4"/>
<feColorMatrix type="matrix" values="0 0 0 0 0.0627451 0 0 0 0 0.0941176 0 0 0 0 0.156863 0 0 0 0.1 0"/>
<feBlend mode="normal" in2="effect1_dropShadow_674_3067" result="effect2_dropShadow_674_3067"/>
<feBlend mode="normal" in="SourceGraphic" in2="effect2_dropShadow_674_3067" result="shape"/>
</filter>
</defs>
</svg>
